<svg xmlns="http://www.w3.org/2000/svg" width="32" height="32" viewBox="0 0 1024 1024" role="img" aria-labelledby="logo-title logo-description">
  <title id="logo-title">Kocotree</title>
  <desc id="logo-description">品牌绿色 macOS 圆角方形中的白色 Kocotree 标准品牌符号</desc>
  <path
    fill="#009139"
    d="M512 100L635.4 100.2 674.7 100.8 703.2 101.8 726.3 103.2 746 105 763.2 107.2 778.6 109.8 792.6 112.8 805.3 116.3 817 120.2 827.7 124.5 837.7 129.3 846.9 134.6 855.4 140.3 863.3 146.6 870.7 153.3 877.4 160.7 883.7 168.6 889.4 177.1 894.7 186.3 899.5 196.3 903.8 207 907.7 218.7 911.2 231.4 914.2 245.4 916.8 260.8 919 278 920.8 297.7 922.2 320.8 923.2 349.3 923.8 388.6 924 512 923.8 635.4 923.2 674.7 922.2 703.2 920.8 726.3 919 746 916.8 763.2 914.2 778.6 911.2 792.6 907.7 805.3 903.8 817 899.5 827.7 894.7 837.7 889.4 846.9 883.7 855.4 877.4 863.3 870.7 870.7 863.3 877.4 855.4 883.7 846.9 889.4 837.7 894.7 827.7 899.5 817 903.8 805.3 907.7 792.6 911.2 778.6 914.2 763.2 916.8 746 919 726.3 920.8 703.2 922.2 674.7 923.2 635.4 923.8 512 924 388.6 923.8 349.3 923.2 320.8 922.2 297.7 920.8 278 919 260.8 916.8 245.4 914.2 231.4 911.2 218.7 907.7 207 903.8 196.3 899.5 186.3 894.7 177.1 889.4 168.6 883.7 160.7 877.4 153.3 870.7 146.6 863.3 140.3 855.4 134.6 846.9 129.3 837.7 124.5 827.7 120.2 817 116.3 805.3 112.8 792.6 109.8 778.6 107.2 763.2 105 746 103.2 726.3 101.8 703.2 100.8 674.7 100.2 635.4 100 512 100.2 388.6 100.8 349.3 101.8 320.8 103.2 297.7 105 278 107.2 260.8 109.8 245.4 112.8 231.4 116.3 218.7 120.2 207 124.5 196.3 129.3 186.3 134.6 177.1 140.3 168.6 146.6 160.7 153.3 153.3 160.7 146.6 168.6 140.3 177.1 134.6 186.3 129.3 196.3 124.5 207 120.2 218.7 116.3 231.4 112.8 245.4 109.8 260.8 107.2 278 105 297.7 103.2 320.8 101.8 349.3 100.8 388.6 100.2Z"
  />
  <g transform="translate(218 267) scale(1.9573)" fill="#fff">
    <path d="M0 128A84 84 0 0 1 82 44A74.5 74.5 0 0 1 218 44A84 84 0 0 1 300 128Z" />
    <rect x="4" y="149" width="47" height="91" rx="2" />
    <path d="M91 149h42c4 0 6 4 4 7l-25 38 25 39c2 3 0 7-4 7H91l-28-46Z" />
    <rect x="160" y="149" width="47" height="91" rx="2" />
    <path d="M246 149h42c4 0 6 4 4 7l-24 38 24 39c2 3 0 7-4 7h-42l-27-46Z" />
  </g>
</svg>
